<?xml version="1.0" encoding="UTF-8" standalone="no"?>
<!-- Created with Inkscape (http://www.inkscape.org/) -->
<svg id="svg2" xmlns:rdf="http://www.w3.org/1999/02/22-rdf-syntax-ns#" xmlns="http://www.w3.org/2000/svg" height="80mm" viewBox="0 0 283.46453 283.46456" width="80mm" version="1.1" xmlns:cc="http://creativecommons.org/ns#" xmlns:dc="http://purl.org/dc/elements/1.1/">
 <metadata id="metadata7">
  <rdf:RDF>
   <cc:Work rdf:about="">
    <dc:format>image/svg+xml</dc:format>
    <dc:type rdf:resource="http://purl.org/dc/dcmitype/StillImage"/>
    <dc:title/>
   </cc:Work>
  </rdf:RDF>
 </metadata>
 <g id="layer2" transform="matrix(1.136 0 0 1.136 -19.005 -19.543)">
  <path id="path3350-6" fill-rule="evenodd" d="m142-0.53516c-78.421 0-142 63.576-142 142 0.002272 78.43 63.579 142 142 142 78.43 0 142-63.57 142-142 0-78.417-63.57-142-142-142zm-100.7 87.797h200.37v19.088h-200.37l0.001-19.088zm0.004 44.998h200.36l0.01 19.09h-200.36l-0.005-19.09zm0.494 44.86h200.36v19.08h-200.36l-0.001-19.08z" transform="matrix(.88028 0 0 .88028 16.73 17.203)"/>
  <g id="g3403" transform="matrix(.65221 0 0 .64443 -96.707 -193.27)">
   <g id="g3407"></g>
  </g>
 </g>
 <g id="layer1" transform="matrix(.65221 0 0 .64443 69.797 -435.33)">
  <a id="a3396"/>
 </g>
</svg>
