<?xml version="1.0" encoding="UTF-8" standalone="no"?>
<!-- Created with Inkscape (http://www.inkscape.org/) -->
<svg id="svg2" xmlns:rdf="http://www.w3.org/1999/02/22-rdf-syntax-ns#" xmlns="http://www.w3.org/2000/svg" height="80mm" width="80mm" version="1.1" xmlns:cc="http://creativecommons.org/ns#" xmlns:dc="http://purl.org/dc/elements/1.1/" viewBox="0 0 283.46453 283.46456">
 <metadata id="metadata7">
  <rdf:RDF>
   <cc:Work rdf:about="">
    <dc:format>image/svg+xml</dc:format>
    <dc:type rdf:resource="http://purl.org/dc/dcmitype/StillImage"/>
    <dc:title/>
   </cc:Work>
  </rdf:RDF>
 </metadata>
 <g id="layer1" transform="translate(0 -768.9)">
  <a id="a3396"></a>
  <g id="g3403" transform="translate(-220.22 393.01)">
   <g id="g3407">
    <g id="g3411">
     <g id="g3423">
      <path id="path3358" d="m276.76 615.13c-0.1303-8.7231 0.37881-94.682 0.37881-94.682 0-64.299 0.43145-96.2 1.3333-98.58 1.896-5.004 6.0072-9.1116 11.792-11.781 4.6691-2.1549 9.5916-2.309 74.375-2.3281 43.132-0.0127 71.102 0.45911 73.939 1.2473 5.7676 1.602 12.993 9.4674 14.774 16.084 0.9224 3.4256 1.2398 34.342 1.0048 97.883-0.38377 103.77 0.067 85.617 0.0379 95.535-0.0148 5.0396-6.9745 12.226-14.565 12.593-16.971 0.822-70.356 0.37246-70.356 0.37246-39.036 0.80958-67.041 0.26274-76.04 0.25185-8.9984-0.0109-16.544-7.8729-16.674-16.596zm94.307 3.7064c5.5379-2.5232 7.4936-10.669 3.8205-15.913-4.6128-6.5858-15.033-5.8923-18.725 1.2461-4.9878 9.6455 4.7954 19.273 14.904 14.667zm64.822-111.69c0-77.153-0.0664-79.367-2.4178-80.625-1.5804-0.84583-25.636-1.294-69.457-1.294s-67.877 0.44815-69.457 1.294c-2.3514 1.2584-2.4178 3.4721-2.4178 80.625v79.331h71.875 71.875zm-128.75 43.706v-4.375h56.25 56.25v4.375 4.375h-56.25-56.25zm0-18.75v-4.375h56.25 56.25v4.375 4.375h-56.25-56.25zm-0.00035-21.562-0.00036-4.6875 56.25 0.33759 56.25 0.33758v4.3499 4.3499h-56.25-56.25zm0.00035-20.938v-4.375h56.25 56.25v4.375 4.375h-56.25-56.25zm0-43.125v-5h26.875 26.875v5 5h-26.875-26.875z"/>
      <path id="path3358-9" d="m307.07 469.23v-4.375h56.25 56.25v4.375 4.375h-56.25-56.25z"/>
     </g>
    </g>
   </g>
  </g>
 </g>
</svg>
