<?xml version="1.0" standalone="no"?>
<!DOCTYPE svg PUBLIC "-//W3C//DTD SVG 20010904//EN"
 "http://www.w3.org/TR/2001/REC-SVG-20010904/DTD/svg10.dtd">
<svg version="1.0" xmlns="http://www.w3.org/2000/svg"
 width="360.000000pt" height="360.000000pt" viewBox="0 0 360.000000 360.000000"
 preserveAspectRatio="xMidYMid meet">
<metadata>
Created by potrace 1.11, written by Peter Selinger 2001-2013
</metadata>
<g transform="translate(0.000000,360.000000) scale(0.100000,-0.100000)"
fill="#000000" stroke="none">
<path d="M1645 3474 c-261 -33 -468 -107 -664 -239 -333 -223 -554 -570 -618
-970 -19 -123 -13 -391 12 -505 124 -565 552 -990 1118 -1112 145 -31 417 -31
564 0 288 62 524 190 728 396 203 203 335 446 389 713 17 82 35 280 30 323 -1
14 -5 65 -9 114 -12 169 -80 388 -171 550 -71 127 -130 203 -243 317 -208 207
-457 338 -751 394 -80 15 -318 27 -385 19z m732 -545 c40 -15 82 -57 104 -104
18 -38 19 -81 19 -775 0 -475 -4 -748 -10 -772 -13 -47 -50 -91 -93 -112 -30
-14 -104 -16 -611 -16 -654 -1 -625 -4 -677 79 l-29 45 0 762 c0 516 3 772 11
791 15 40 48 73 94 94 37 17 77 19 602 19 373 0 571 -4 590 -11z"/>
<path d="M1218 2789 c-17 -9 -18 -51 -18 -644 l0 -635 575 0 575 0 0 635 c0
617 -1 635 -19 645 -27 14 -1089 13 -1113 -1z m537 -159 l-1 -35 -219 0 -220
0 -1 25 c-1 52 -6 51 225 48 l216 -3 0 -35z m463 -173 l3 -37 -452 2 -453 3 1
28 c1 15 1 32 2 37 1 7 153 9 449 8 l447 -3 3 -38z m-5 -137 c4 0 7 -16 7 -35
l0 -35 -450 0 c-292 0 -450 4 -451 10 -1 6 -2 16 -3 23 -7 43 -12 42 451 40
241 -2 441 -3 446 -3z m5 -204 l3 -36 -453 2 -453 3 -1 30 c0 17 0 32 2 35 1
3 204 4 451 3 l448 -2 3 -35z m2 -171 l0 -35 -453 0 -453 0 0 35 0 35 453 0
453 0 0 -35z m0 -150 c0 -19 -3 -35 -7 -35 -5 0 -206 -1 -447 -1 -454 0 -456
0 -450 39 1 6 2 17 3 22 1 7 159 10 451 10 l450 0 0 -35z"/>
<path d="M1710 1409 c-61 -22 -74 -108 -23 -149 83 -65 191 46 121 123 -27 29
-63 39 -98 26z"/>
<path d="M1490 503 c-6 -107 -3 -257 5 -263 6 -4 33 -6 60 -4 36 3 55 10 68
25 24 30 22 75 -6 102 -20 19 -22 25 -11 45 16 32 3 74 -27 89 -26 14 -89 17
-89 6z"/>
<path d="M1713 391 c-72 -44 -38 -161 47 -161 84 0 115 126 40 165 -38 19 -48
19 -87 -4z m94 -23 c29 -27 30 -71 3 -98 -47 -47 -120 -15 -120 51 0 61 71 90
117 47z"/>
<path d="M1902 385 c-64 -54 -26 -155 58 -155 33 0 80 53 80 89 0 38 -36 79
-76 87 -24 4 -37 0 -62 -21z m99 -13 c26 -22 30 -71 9 -98 -34 -40 -98 -33
-119 12 -16 35 -14 47 10 78 25 31 66 35 100 8z"/>
</g>
</svg>
