<?xml version="1.0" encoding="UTF-8" standalone="no"?>
<!-- Created with Inkscape (http://www.inkscape.org/) -->
<svg id="svg2" xmlns:rdf="http://www.w3.org/1999/02/22-rdf-syntax-ns#" xmlns="http://www.w3.org/2000/svg" height="80mm" viewBox="0 0 283.46453 283.46456" width="80mm" version="1.1" xmlns:cc="http://creativecommons.org/ns#" xmlns:dc="http://purl.org/dc/elements/1.1/">
 <metadata id="metadata7">
  <rdf:RDF>
   <cc:Work rdf:about="">
    <dc:format>image/svg+xml</dc:format>
    <dc:type rdf:resource="http://purl.org/dc/dcmitype/StillImage"/>
    <dc:title/>
   </cc:Work>
  </rdf:RDF>
 </metadata>
 <g id="layer2">
  <path id="path3350-6" fill-rule="evenodd" d="m142-0.53543a142 142 0 0 0 -142 142 142 142 0 0 0 142 142 142 142 0 0 0 142 -142 142 142 0 0 0 -142 -142zm-0.70112 59.951c31.957-0.0093 52.681 0.3349 54.783 0.91191 4.2733 1.1728 9.6255 6.9311 10.945 11.775 0.68343 2.5078 0.91962 25.142 0.7455 71.659-0.28433 75.967 0.0481 62.677 0.0266 69.937-0.011 3.6894-5.1659 8.9502-10.79 9.2189-12.574 0.60176-52.127 0.27291-52.127 0.27291-28.922 0.59268-49.673 0.19214-56.341 0.18416-6.6663-0.007-12.256-5.7626-12.354-12.148-0.09649-6.3903 0.28178-69.316 0.28178-69.316 0-47.071 0.31915-70.425 0.98734-72.167 1.4048-3.6633 4.4514-6.6701 8.7374-8.6243 3.4594-1.5775 7.106-1.69 55.105-1.704zm-0.46372 12.789c-32.468 0-50.291 0.32818-51.462 0.94741-1.7422 0.92124-1.7905 2.5418-1.7905 59.023v58.076h53.252 53.254v-58.076c0-56.482-0.0506-58.102-1.7928-59.023-1.1709-0.61921-18.994-0.94741-51.462-0.94741zm-42.138 11.895h19.911 19.913v3.6609 3.6609h-19.913-19.911v-3.6609-3.6609zm-0.05103 17.115h41.677 41.675v3.2017 3.2039h-41.675-41.677v-3.2039-3.2017zm0.05103 14.912h41.677 41.675v3.2039 3.2017h-41.675-41.677v-3.2017-3.2039zm0 15.101 41.675 0.24629 41.677 0.2485v3.1839 3.1839h-41.677-41.675v-3.4324-3.4302zm0 16.013h41.677 41.675v3.2039 3.2017h-41.675-41.677v-3.2017-3.2039zm0 13.727h41.677 41.675v3.2016 3.2039h-41.675-41.677v-3.2039-3.2016zm44.018 38.003c-3.0402-0.1549-6.1582 1.2916-7.6968 4.2312-3.6955 7.0612 3.5531 14.108 11.043 10.737h0.002c4.1031-1.8472 5.5504-7.8095 2.8289-11.648-1.4952-2.1093-3.8124-3.1988-6.177-3.3192z"/>
  <g id="g3403" transform="matrix(.65221 0 0 .64443 -96.707 -193.27)">
   <g id="g3407">
    <g id="g3411"></g>
   </g>
  </g>
 </g>
 <g id="layer1" transform="matrix(.65221 0 0 .64443 69.797 -435.33)">
  <a id="a3396"/>
 </g>
</svg>
