<?xml version="1.0" encoding="UTF-8" standalone="no"?>
<!-- Created with Inkscape (http://www.inkscape.org/) -->
<svg id="svg2" xmlns:rdf="http://www.w3.org/1999/02/22-rdf-syntax-ns#" xmlns="http://www.w3.org/2000/svg" height="80mm" viewBox="0 0 283.46453 283.46456" width="80mm" version="1.1" xmlns:cc="http://creativecommons.org/ns#" xmlns:dc="http://purl.org/dc/elements/1.1/">
 <metadata id="metadata7">
  <rdf:RDF>
   <cc:Work rdf:about="">
    <dc:format>image/svg+xml</dc:format>
    <dc:type rdf:resource="http://purl.org/dc/dcmitype/StillImage"/>
    <dc:title/>
   </cc:Work>
  </rdf:RDF>
 </metadata>
 <g id="layer2">
  <path id="path3350-6" fill-rule="evenodd" d="m142-0.53516c-78.421 0-142 63.576-142 142 0.002272 78.43 63.579 142 142 142 78.43 0 142-63.57 142-142 0-78.417-63.57-142-142-142zm-18.2 64.787c5.78 0 11.72 0.013 18.02 0.039 42.78-0.001 77.47 34.68 77.47 77.459-0.01 42.78-34.69 77.46-77.47 77.46-41.53 0-75.418-32.68-77.365-73.73-0.089 0.12-0.173 0.23-0.262 0.35v-74.797c-0.263-3.754 2.959-6.537 6.489-6.537 13.25-0.095 24.739-0.17 36.058-0.211v-0.002c5.67-0.02 11.29-0.031 17.06-0.031zm18.02 23.596c-29.77 0-53.902 24.132-53.902 53.902s24.132 53.9 53.902 53.9 53.91-24.13 53.91-53.9-24.14-53.902-53.91-53.902zm0 14.422a39.478 39.478 0 0 1 39.48 39.48 39.478 39.478 0 0 1 -39.48 39.48 39.478 39.478 0 0 1 -39.48 -39.48 39.478 39.478 0 0 1 39.48 -39.48zm0 19.32a20.158 20.158 0 0 0 -20.16 20.16 20.158 20.158 0 0 0 20.16 20.16 20.158 20.158 0 0 0 20.16 -20.16 20.158 20.158 0 0 0 -20.16 -20.16z" transform="translate(-.000015259)"/>
  <g id="g3403" transform="matrix(.65221 0 0 .64443 -96.707 -193.27)">
   <g id="g3407"></g>
  </g>
 </g>
 <g id="layer1" transform="matrix(.65221 0 0 .64443 69.797 -435.33)">
  <a id="a3396"/>
 </g>
</svg>
