<?xml version="1.0" encoding="utf-8"?>
<!-- Generator: Adobe Illustrator 16.0.4, SVG Export Plug-In . SVG Version: 6.00 Build 0)  -->
<!DOCTYPE svg PUBLIC "-//W3C//DTD SVG 1.1//EN" "http://www.w3.org/Graphics/SVG/1.1/DTD/svg11.dtd">
<svg version="1.1" id="Calque_1" xmlns="http://www.w3.org/2000/svg" xmlns:xlink="http://www.w3.org/1999/xlink" x="0px" y="0px"
	 width="595.28px" height="841.89px" viewBox="0 0 595.28 841.89" enable-background="new 0 0 595.28 841.89" xml:space="preserve">
<g>
	<defs>
		<rect id="SVGID_1_" x="224" y="359.041" width="147.186" height="125.85"/>
	</defs>
	<clipPath id="SVGID_2_">
		<use xlink:href="#SVGID_1_"  overflow="visible"/>
	</clipPath>
	<path clip-path="url(#SVGID_2_)" d="M295.925,484.891c34.752,0,62.924-28.174,62.924-62.925c0-34.753-28.172-62.925-62.924-62.925
		c-34.753,0-62.925,28.172-62.925,62.925C233,456.717,261.172,484.891,295.925,484.891"/>
</g>
<text transform="matrix(1 0 0 1 281.4834 397.0845)" fill="#FFFFFF" font-family="'Montserrat-Bold'" font-size="12">Pour </text>
<text transform="matrix(1 0 0 1 247.5112 415.0845)" fill="#FFFFFF" font-family="'Montserrat-Bold'" font-size="12">nous soumettre </text>
<text transform="matrix(1 0 0 1 241.7876 433.084)"><tspan x="0" y="0" fill="#FFFFFF" font-family="'Montserrat-Bold'" font-size="12">v</tspan><tspan x="6.648" y="0" fill="#FFFFFF" font-family="'Montserrat-Bold'" font-size="12">os propres outils </tspan></text>
<text transform="matrix(1 0 0 1 252.2515 452.0801)" fill="#FFFFFF" font-family="'Montserrat-Bold'" font-size="12">pédagogiques</text>
</svg>
