<?xml version="1.0" encoding="UTF-8" standalone="no"?>
<!-- Created with Inkscape (http://www.inkscape.org/) -->
<svg id="svg2" xmlns:rdf="http://www.w3.org/1999/02/22-rdf-syntax-ns#" xmlns="http://www.w3.org/2000/svg" height="80mm" viewBox="0 0 283.46453 283.46456" width="80mm" version="1.1" xmlns:cc="http://creativecommons.org/ns#" xmlns:dc="http://purl.org/dc/elements/1.1/">
 <metadata id="metadata7">
  <rdf:RDF>
   <cc:Work rdf:about="">
    <dc:format>image/svg+xml</dc:format>
    <dc:type rdf:resource="http://purl.org/dc/dcmitype/StillImage"/>
    <dc:title/>
   </cc:Work>
  </rdf:RDF>
 </metadata>
 <g id="layer2">
  <path id="path3350-6" fill-rule="evenodd" d="m142-0.53516c-78.421 0-142 63.576-142 142 0.002272 78.43 63.579 142 142 142 78.43 0 142-63.57 142-142 0-78.412-63.57-142-142-142zm-25.25 83.424h49.96c4.25 0 7.68 4.264 7.68 9.523v108.17h-65.32v-108.17c0-5.256 3.44-9.52 7.68-9.521zm-69.988 42.041h49.968c4.24 0 7.68 2.74 7.68 6.12v69.53h-65.324v-69.53c0-3.38 3.436-6.12 7.676-6.12zm139.74 25.48h49.96c4.24 0 7.68 1.82 7.68 4.06v46.11h-65.32v-46.11c0-2.24 3.44-4.06 7.68-4.06z" transform="translate(-.000015259)"/>
  <g id="g3403" transform="matrix(.65221 0 0 .64443 -96.707 -193.27)"></g>
 </g>
 <g id="layer1" transform="matrix(.65221 0 0 .64443 69.797 -435.33)">
  <a id="a3396"/>
 </g>
</svg>
