<?xml version="1.0" encoding="UTF-8" standalone="no"?>
<!-- Created with Inkscape (http://www.inkscape.org/) -->
<svg id="svg2" xmlns:rdf="http://www.w3.org/1999/02/22-rdf-syntax-ns#" xmlns="http://www.w3.org/2000/svg" height="80mm" viewBox="0 0 283.46453 283.46456" width="80mm" version="1.1" xmlns:cc="http://creativecommons.org/ns#" xmlns:dc="http://purl.org/dc/elements/1.1/">
 <metadata id="metadata7">
  <rdf:RDF>
   <cc:Work rdf:about="">
    <dc:format>image/svg+xml</dc:format>
    <dc:type rdf:resource="http://purl.org/dc/dcmitype/StillImage"/>
    <dc:title/>
   </cc:Work>
  </rdf:RDF>
 </metadata>
 <g id="layer2">
  <path id="path3350-6" fill-rule="evenodd" d="m142-0.53516c-78.421 0-142 63.576-142 142 0.002272 78.43 63.579 142 142 142 78.43 0 142-63.57 142-142 0-78.417-63.57-142-142-142zm-1.15 69.803c0.04 0.001 0.07 0.003 0.1 0.005 0.9-0.022 1.79 0.193 2.57 0.625l97.32 37.422c4.35 1.67 4.34 7.83-0.03 9.48l-96.9 36.6c-1.15 0.44-2.42 0.44-3.57 0.01l-97.668-36.6c-4.37-1.63-4.413-7.8-0.067-9.49l95.875-37.41c0.73-0.404 1.54-0.625 2.37-0.642zm-82.35 64.622c5.291 0 9.686 4.4 9.686 9.69s-4.395 9.69-9.686 9.69-9.691-4.4-9.691-9.69 4.4-9.69 9.691-9.69zm143.28 8.91c2.67 0.01 5.04 2.18 5.04 5.08v36.34c0 2.36-1.61 4.4-3.9 4.94-25.29 8.54-59.15 21.13-59.15 21.13-1.72 0.77-3.73 0.53-5.21-0.63-17.24-7.36-37.52-14.62-57.404-20.53-2.225-0.59-3.774-2.6-3.773-4.91v-36.34c0.002-2.75 2.188-4.99 4.933-5.07 0.68-0.02 1.355 0.1 1.989 0.34l57.795 22.58 57.8-22.58c0.63-0.24 1.26-0.35 1.88-0.35zm-146.42 14.12a5.0762 5.0762 0 0 1 0.116 0 5.0762 5.0762 0 0 1 2.283 0.55 5.0762 5.0762 0 0 1 7.377 4.26l2.306 44.91a5.0762 5.0762 0 0 1 -1.212 3.57s-1.746 2.22-4.897 3.44c-3.151 1.23-8.646 0.52-12.041-3.44a5.0762 5.0762 0 0 1 -1.213 -3.57l2.307-44.91a5.0762 5.0762 0 0 1 4.974 -4.81z" transform="translate(-.000015259)"/>
  <g id="g3403" transform="matrix(.65221 0 0 .64443 -96.707 -193.27)">
   <g id="g3407"></g>
  </g>
  <g id="g3343" transform="matrix(10.457 0 0 9.8495 -749.37 -446.39)" stroke="#00ad00" stroke-width="1.0198" fill="#ff0"></g>
 </g>
 <g id="layer1" transform="matrix(.65221 0 0 .64443 69.797 -435.33)">
  <a id="a3396"/>
 </g>
</svg>
