<?xml version="1.0" encoding="UTF-8" standalone="no"?>
<!-- Created with Inkscape (http://www.inkscape.org/) -->

<svg
   xmlns:dc="http://purl.org/dc/elements/1.1/"
   xmlns:cc="http://creativecommons.org/ns#"
   xmlns:rdf="http://www.w3.org/1999/02/22-rdf-syntax-ns#"
   xmlns:svg="http://www.w3.org/2000/svg"
   xmlns="http://www.w3.org/2000/svg"
   xmlns:sodipodi="http://sodipodi.sourceforge.net/DTD/sodipodi-0.dtd"
   xmlns:inkscape="http://www.inkscape.org/namespaces/inkscape"
   id="svg2"
   height="80mm"
   viewBox="0 0 283.46453 283.46456"
   width="80mm"
   version="1.1"
   inkscape:version="0.91 r13725"
   sodipodi:docname="prix.svg">
  <defs
     id="defs9987" />
  <sodipodi:namedview
     pagecolor="#ffffff"
     bordercolor="#666666"
     borderopacity="1"
     objecttolerance="10"
     gridtolerance="10"
     guidetolerance="10"
     inkscape:pageopacity="0"
     inkscape:pageshadow="2"
     inkscape:window-width="857"
     inkscape:window-height="480"
     id="namedview9985"
     showgrid="false"
     inkscape:zoom="1.1204749"
     inkscape:cx="54.874177"
     inkscape:cy="141.73228"
     inkscape:window-x="372"
     inkscape:window-y="158"
     inkscape:window-maximized="0"
     inkscape:current-layer="layer2" />
  <metadata
     id="metadata7">
    <rdf:RDF>
      <cc:Work
         rdf:about="">
        <dc:format>image/svg+xml</dc:format>
        <dc:type
           rdf:resource="http://purl.org/dc/dcmitype/StillImage" />
        <dc:title />
      </cc:Work>
    </rdf:RDF>
  </metadata>
  <g
     id="layer2">
    <path
       id="path3350-6"
       d="m 141.99998,-0.53543 c -78.421482,0 -141.999995258789,63.576238 -141.999995258789,142 0.0022719988,78.42944 63.578513258789,142 141.999995258789,142 78.42944,0 142,-63.57056 142,-142 0,-78.42149 -63.57056,-142 -142,-142 z m -0.87472,49.396687 c 0.29536,-0.01363 0.57936,-0.0045 0.852,0.02158 0.0114,0.0011 0.0341,-0.0011 0.0454,0 4.41904,-0.42032 10.81472,4.212288 19.7096,15.838111 14.29088,-3.183071 22.16336,-2.625296 25.276,0.536192 0.0114,0.0068 0.0227,0.0159 0.0341,0.02272 l 0,0.0045 c 3.65792,2.519648 5.57776,10.175148 4.91888,24.798875 12.99584,6.745579 18.66448,12.232457 19.01664,16.662857 0.0114,0 0.0114,0.0114 0.0114,0.0114 l 0,0.0227 c 1.18144,4.28272 -2.272,11.38272 -12.17792,22.16336 5.6232,13.52976 6.44112,21.37952 3.8624,24.992 -0.0114,0.0114 -0.0114,0.0227 -0.0227,0.0341 -1.84032,4.0328 -9.04256,7.24768 -23.56064,9.1448 -4.39632,13.9728 -8.81536,20.5048 -13.10944,21.62944 -3.99872,1.9312 -11.59856,-0.2272 -23.98096,-8.13376 -12.37104,7.90656 -19.97088,10.06496 -23.9696,8.13376 l -0.0114,0 c -4.29408,-1.12464 -8.71311,-7.65664 -13.09807,-21.62944 -14.519219,-1.89712 -21.726003,-5.112 -23.569731,-9.1448 -0.008,-0.0114 -0.0125,-0.0227 -0.02045,-0.0341 -2.575312,-3.62384 -1.75512,-11.46224 3.863536,-24.992 -9.903649,-10.78064 -13.359361,-17.88064 -12.176785,-22.16336 0.0023,-0.0114 0.008,-0.0227 0.0091,-0.0341 0.353296,-4.4304 6.024209,-9.917278 19.018913,-16.662857 -0.6532,-14.623727 1.262096,-22.279227 4.912064,-24.798875 0.01136,-0.01022 0.02272,-0.0159 0.03408,-0.02726 3.124003,-3.161488 10.985123,-3.719263 25.275993,-0.536192 8.3496,-10.898783 14.484,-15.659759 18.8576,-15.859695 z m 0.87472,32.48505 a 35.784001,35.783999 0 0 0 -35.78399,35.782873 35.784001,35.783999 0 0 0 35.78399,35.784 35.784001,35.783999 0 0 0 35.784,-35.784 35.784001,35.783999 0 0 0 -35.784,-35.782873 z m 44.42896,86.789273 10.76928,47.2008 c 1.06784,4.66896 -1.94256,12.4392 -6.40704,10.71248 l -14.64304,-5.65728 -11.55312,12.84816 c -4.61216,1.27232 -9.19024,-1.46544 -10.24672,-6.1344 l -9.50832,-41.64576 c 3.77152,2.12432 7.23632,3.8056 10.31488,4.81664 4.19184,1.3632 8.20192,1.84032 11.9848,0.55664 0.1136,-0.0227 0.23856,-0.0454 0.36352,-0.0795 0.0682,-0.0227 0.1136,-0.0795 0.19312,-0.10224 0.30672,-0.12496 0.63616,-0.15904 0.94288,-0.31808 l -0.64752,0.14768 c 4.2032,-1.28368 7.2136,-4.39632 9.73552,-8.45184 2.14704,-3.43072 4.05552,-8.02016 5.92992,-13.4048 0.95424,-0.15904 1.85168,-0.32944 2.77184,-0.48848 z m -88.744313,0.0341 c 0.852,0.14768 1.69264,0.30672 2.578723,0.4544 1.8744,5.38464 3.79424,9.97408 5.92992,13.4048 1.54496,2.45376 7.66799,8.0088 9.08799,8.30416 0.30672,0.15904 0.63616,0.19312 0.94288,0.31808 0.0795,0.0227 0.12496,0.0795 0.19312,0.10224 0.1136,0.0227 0.2272,0.0454 0.32944,0.0682 3.79424,1.29504 7.80432,0.82928 12.01888,-0.54528 3.14672,-1.0224 6.69104,-2.76048 10.55344,-4.95296 l -9.656,42.30464 c -1.06784,4.66896 -5.63456,7.40672 -10.25808,6.1344 -6.52063,-7.24768 -11.28047,-11.80304 -11.28047,-11.80304 0,0 -5.64592,2.01072 -14.905459,4.62352 -4.465616,1.72672 -7.47488,-6.04352 -6.410448,-10.71248 l 10.876064,-47.70064 z"
       inkscape:connector-curvature="0"
       style="fill-rule:evenodd" />
    <g
       id="g3403"
       transform="matrix(.65221 0 0 .64443 -96.707 -193.27)">
      <g
         id="g3407">
        <g
           id="g3411" />
      </g>
    </g>
  </g>
  <g
     id="layer1"
     transform="matrix(.65221 0 0 .64443 69.797 -435.33)">
    <a
       id="a3396" />
  </g>
</svg>
