<?xml version="1.0" encoding="UTF-8" standalone="no"?>
<!-- Created with Inkscape (http://www.inkscape.org/) -->
<svg id="svg2" xmlns:rdf="http://www.w3.org/1999/02/22-rdf-syntax-ns#" xmlns="http://www.w3.org/2000/svg" height="80mm" viewBox="0 0 283.46453 283.46456" width="80mm" version="1.1" xmlns:cc="http://creativecommons.org/ns#" xmlns:dc="http://purl.org/dc/elements/1.1/">
 <metadata id="metadata7">
  <rdf:RDF>
   <cc:Work rdf:about="">
    <dc:format>image/svg+xml</dc:format>
    <dc:type rdf:resource="http://purl.org/dc/dcmitype/StillImage"/>
    <dc:title/>
   </cc:Work>
  </rdf:RDF>
 </metadata>
 <g id="layer2">
  <path id="path3350-6" d="m141.73 16.732c-69.033 0-125 55.965-125 125 0.002 69.04 55.967 125 125 125 69.04 0 125-55.96 125-125 0-69.033-55.96-125-125-125zm-0.77 43.483c0.26-0.012 0.51-0.002 0.75 0.021 0.02 0.001 0.03-0.001 0.04 0 3.89-0.37 9.52 3.706 17.35 13.94 12.58-2.802 19.51-2.311 22.25 0.472 0.01 0.006 0.02 0.016 0.03 0.022v0.002c3.22 2.218 4.9 8.957 4.33 21.83 11.44 5.938 16.43 10.768 16.74 14.668 0 0 0 0.01 0.01 0.01v0.02c1.04 3.77-2 10.02-10.72 19.51 4.95 11.91 5.67 18.82 3.4 22-0.01 0.01-0.01 0.02-0.02 0.03-1.62 3.55-7.96 6.38-20.75 8.05-3.86 12.3-7.75 18.05-11.53 19.04-3.53 1.7-10.21-0.2-21.11-7.16-10.89 6.96-17.58 8.86-21.1 7.16h-0.01c-3.78-0.99-7.67-6.74-11.53-19.04-12.781-1.67-19.125-4.5-20.748-8.05-0.007-0.01-0.011-0.02-0.018-0.03-2.267-3.18-1.545-10.09 3.401-22-8.718-9.49-11.76-15.74-10.719-19.51 0.002-0.01 0.007-0.02 0.008-0.03 0.311-3.9 5.303-8.73 16.742-14.668-0.575-12.873 1.111-19.612 4.324-21.83 0.01-0.009 0.02-0.014 0.03-0.024 2.75-2.783 9.67-3.274 22.25-0.472 7.35-9.594 12.75-13.785 16.6-13.961zm0.77 24.289a35.003 35.81 0 0 0 -35 35.806 35.003 35.81 0 0 0 35 35.82 35.003 35.81 0 0 0 35 -35.82 35.003 35.81 0 0 0 -35 -35.806zm39.11 80.706l9.48 41.55c0.94 4.11-1.71 10.95-5.64 9.43l-12.89-4.98-10.17 11.31c-4.06 1.12-8.09-1.29-9.02-5.4l-8.37-36.66c3.32 1.87 6.37 3.35 9.08 4.24 3.69 1.2 7.22 1.62 10.55 0.49 0.1-0.02 0.21-0.04 0.32-0.07 0.06-0.02 0.1-0.07 0.17-0.09 0.27-0.11 0.56-0.14 0.83-0.28l-0.57 0.13c3.7-1.13 6.35-3.87 8.57-7.44 1.89-3.02 3.57-7.06 5.22-11.8 0.84-0.14 1.63-0.29 2.44-0.43zm-78.12 0.03c0.75 0.13 1.49 0.27 2.27 0.4 1.65 4.74 3.34 8.78 5.22 11.8 1.36 2.16 6.75 7.05 8 7.31 0.27 0.14 0.56 0.17 0.83 0.28 0.07 0.02 0.11 0.07 0.17 0.09 0.1 0.02 0.2 0.04 0.29 0.06 3.34 1.14 6.87 0.73 10.58-0.48 2.77-0.9 5.89-2.43 9.29-4.36l-8.5 37.24c-0.94 4.11-4.96 6.52-9.03 5.4-5.74-6.38-9.93-10.39-9.93-10.39s-4.97 1.77-13.121 4.07c-3.931 1.52-6.58-5.32-5.643-9.43l9.574-41.99z" fill-rule="evenodd" transform="translate(-.000015259)"/>
  <g id="g3403" transform="matrix(.65221 0 0 .64443 -96.707 -193.27)">
   <g id="g3407">
    <g id="g3411"></g>
   </g>
  </g>
 </g>
 <g id="layer1" transform="matrix(.65221 0 0 .64443 69.797 -435.33)">
  <a id="a3396"/>
 </g>
</svg>
