<?xml version="1.0" encoding="UTF-8" standalone="no"?>
<!-- Created with Inkscape (http://www.inkscape.org/) -->

<svg
   xmlns:dc="http://purl.org/dc/elements/1.1/"
   xmlns:cc="http://creativecommons.org/ns#"
   xmlns:rdf="http://www.w3.org/1999/02/22-rdf-syntax-ns#"
   xmlns:svg="http://www.w3.org/2000/svg"
   xmlns="http://www.w3.org/2000/svg"
   xmlns:sodipodi="http://sodipodi.sourceforge.net/DTD/sodipodi-0.dtd"
   xmlns:inkscape="http://www.inkscape.org/namespaces/inkscape"
   id="svg2"
   height="80mm"
   width="80mm"
   version="1.1"
   viewBox="0 0 283.46453 283.46456"
   inkscape:version="0.91 r13725"
   sodipodi:docname="prix__.svg">
  <defs
     id="defs3348" />
  <sodipodi:namedview
     pagecolor="#ffffff"
     bordercolor="#666666"
     borderopacity="1"
     objecttolerance="10"
     gridtolerance="10"
     guidetolerance="10"
     inkscape:pageopacity="0"
     inkscape:pageshadow="2"
     inkscape:window-width="1858"
     inkscape:window-height="1177"
     id="namedview3346"
     showgrid="false"
     inkscape:snap-object-midpoints="false"
     inkscape:zoom="2.4485819"
     inkscape:cx="25.560246"
     inkscape:cy="126.50392"
     inkscape:window-x="54"
     inkscape:window-y="-8"
     inkscape:window-maximized="1"
     inkscape:current-layer="layer2" />
  <metadata
     id="metadata7">
    <rdf:RDF>
      <cc:Work
         rdf:about="">
        <dc:format>image/svg+xml</dc:format>
        <dc:type
           rdf:resource="http://purl.org/dc/dcmitype/StillImage" />
        <dc:title></dc:title>
      </cc:Work>
    </rdf:RDF>
  </metadata>
  <g
     inkscape:groupmode="layer"
     id="layer2"
     inkscape:label="Layer 1"
     style="display:inline">
    <path
       style="display:inline;fill-rule:evenodd;stroke:none;stroke-width:1.07099998;stroke-linecap:butt;stroke-linejoin:miter;stroke-miterlimit:4;stroke-dasharray:none;stroke-opacity:1"
       d="m 141.73226,16.732284 c -69.035576,1e-6 -124.999985,55.96441 -124.999986,124.999996 0,69.03559 55.964409,125 124.999986,125 69.03559,0 125,-55.96441 125,-125 0,-69.035587 -55.96441,-124.999996 -125,-124.999996 z"
       id="path3350-6"
       inkscape:connector-curvature="0"
       sodipodi:nodetypes="sssss" />
    <g
       id="g3403"
       transform="matrix(0.65221208,0,0,0.64442911,-96.706703,-193.26607)">
      <g
         id="g3407">
        <g
           id="g3411">
          <g
             id="g3423" />
        </g>
      </g>
    </g>
    <g
       id="g9748" />
    <g
       id="g9867"
       transform="matrix(1.0874818,0,0,1.0874818,251.85712,-1.9812735)">
      <path
         id="path9447-5"
         d="m -101.97177,57.192828 c -3.54099,0.16216 -8.51188,4.015734 -15.26694,12.837793 -11.56509,-2.57603 -17.9367,-2.124368 -20.45896,0.434952 -0.008,0.0084 -0.0195,0.01401 -0.0273,0.02185 -2.95846,2.039604 -4.50893,8.235969 -3.98017,20.073261 -10.5191,5.462128 -15.10969,9.903636 -15.39552,13.486116 -8.7e-4,0.0113 -0.004,0.022 -0.006,0.0328 -0.95673,3.46418 1.83952,9.20906 9.85608,17.93954 -4.54732,10.94659 -5.2114,17.29894 -3.1267,20.22645 0.006,0.009 0.01,0.019 0.0164,0.0273 1.49299,3.2693 7.32559,5.87262 19.08027,7.40779 3.55203,11.30584 7.12766,16.59739 10.60561,17.50187 0,0 0.003,0 0.003,0 3.23836,1.56626 9.38834,-0.1827 19.40578,-6.57894 10.017416,6.39624 16.167416,8.1452 19.405776,6.57894 0,0 0.003,0 0.003,0 3.47796,-0.90448 7.05358,-6.19603 10.60562,-17.50187 11.75467,-1.53517 17.58727,-4.13849 19.08025,-7.40779 0.005,-0.006 0.009,-0.0151 0.014,-0.0219 8.1e-4,-0.001 10e-4,-0.004 0.003,-0.005 2.08471,-2.92751 1.42063,-9.27986 -3.1267,-20.22645 8.01657,-8.73048 10.81282,-14.47536 9.85609,-17.93954 -5.2e-4,-0.008 -0.003,-0.0147 -0.003,-0.0219 -9.9e-4,-0.004 -10e-4,-0.008 -0.003,-0.0113 -0.28582,-3.58261 -4.87641,-8.024123 -15.39551,-13.48624 0.52877,-11.837298 -1.02169,-18.033663 -3.98019,-20.073267 0,0 -0.003,-0.0028 -0.003,-0.0028 -0.009,-0.0056 -0.0162,-0.01401 -0.0247,-0.01918 -2.52225,-2.559312 -8.89385,-3.010974 -20.45895,-0.434944 -7.2059,-9.410851 -12.37865,-13.159606 -15.956296,-12.818647 -0.0113,-0.0011 -0.0221,10e-4 -0.0328,0 -0.22384,-0.02129 -0.45302,-0.02998 -0.68936,-0.01918 z m 0.70577,22.335522 a 32.186844,32.929618 0 0 1 32.186136,32.93021 32.186844,32.929618 0 0 1 -32.186136,32.9302 32.186844,32.929618 0 0 1 -32.18614,-32.9302 32.186844,32.929618 0 0 1 32.18614,-32.93021 z"
         style="opacity:1;fill:#000080;fill-opacity:0.49019608;stroke:none;stroke-width:7.18400002;stroke-linecap:butt;stroke-linejoin:round;stroke-miterlimit:4;stroke-dasharray:none;stroke-opacity:1"
         inkscape:connector-curvature="0" />
      <path
         sodipodi:nodetypes="scccccsccccccccsccccccccccccccc"
         inkscape:connector-curvature="0"
         id="rect9514"
         d="m -65.308464,153.73755 c -0.73683,0.13445 -1.46537,0.27154 -2.24039,0.39665 -1.51775,4.36521 -3.06522,8.0737 -4.79537,10.85455 -2.04141,3.28113 -4.48266,5.79747 -7.88377,6.84427 l 0.52522,-0.12031 c -0.25142,0.12157 -0.51447,0.1551 -0.76868,0.2544 -0.0588,0.0162 -0.0939,0.0693 -0.15319,0.0848 -0.0987,0.0249 -0.19815,0.0468 -0.29818,0.0657 -3.05725,1.03621 -6.29918,0.65152 -9.69194,-0.4541 -2.49798,-0.81401 -5.30123,-2.17966 -8.35703,-3.90357 l 7.69503,33.71255 c 0.8623,3.77882 4.56451,5.99345 8.30231,4.9677 l 9.35273,-10.39771 11.84481,4.582 c 3.61483,1.3986 6.05157,-4.89278 5.18929,-8.6716 z m -38.130426,13.91285 c -3.12874,1.77438 -5.9971,3.18249 -8.54576,4.01301 -3.40399,1.10928 -6.65597,1.49282 -9.72205,0.44316 -0.0897,-0.0158 -0.17923,-0.034 -0.26808,-0.0548 -0.0594,-0.0154 -0.0945,-0.0685 -0.15319,-0.0848 -0.25421,-0.0993 -0.51727,-0.13277 -0.76868,-0.2544 -1.14566,-0.2401 -6.10383,-4.74128 -7.35855,-6.72396 -1.73014,-2.78084 -3.27763,-6.48933 -4.79537,-10.85455 -0.72094,-0.11638 -1.3965,-0.24222 -2.08447,-0.36657 l -8.80837,38.61189 c -0.86232,3.77884 1.57442,10.07021 5.18927,8.67161 7.49582,-2.11088 12.06413,-3.7365 12.06413,-3.7365 0,0 3.85611,3.68528 9.13344,9.55222 3.73777,1.02573 7.44001,-1.18887 8.3023,-4.96771 z"
         style="opacity:1;fill:#000080;fill-opacity:0.49019608;stroke:none;stroke-width:7.18400002;stroke-linejoin:miter;stroke-miterlimit:4;stroke-dasharray:none;stroke-opacity:1" />
    </g>
  </g>
  <g
     id="layer1"
     transform="matrix(0.65221208,0,0,0.64442911,69.796994,-435.33041)">
    <a
       id="a3396" />
  </g>
</svg>
