<?xml version="1.0" encoding="UTF-8" standalone="no"?>
<!-- Created with Inkscape (http://www.inkscape.org/) -->

<svg
   xmlns:dc="http://purl.org/dc/elements/1.1/"
   xmlns:cc="http://creativecommons.org/ns#"
   xmlns:rdf="http://www.w3.org/1999/02/22-rdf-syntax-ns#"
   xmlns:svg="http://www.w3.org/2000/svg"
   xmlns="http://www.w3.org/2000/svg"
   xmlns:sodipodi="http://sodipodi.sourceforge.net/DTD/sodipodi-0.dtd"
   xmlns:inkscape="http://www.inkscape.org/namespaces/inkscape"
   id="svg2"
   height="80mm"
   width="80mm"
   version="1.1"
   viewBox="0 0 283.46453 283.46456"
   inkscape:version="0.91 r13725"
   sodipodi:docname="search_.svg">
  <defs
     id="defs3348" />
  <sodipodi:namedview
     pagecolor="#ffffff"
     bordercolor="#666666"
     borderopacity="1"
     objecttolerance="10"
     gridtolerance="10"
     guidetolerance="10"
     inkscape:pageopacity="0"
     inkscape:pageshadow="2"
     inkscape:window-width="1858"
     inkscape:window-height="1177"
     id="namedview3346"
     showgrid="false"
     inkscape:snap-object-midpoints="false"
     inkscape:zoom="2.4485819"
     inkscape:cx="25.560246"
     inkscape:cy="185.97613"
     inkscape:window-x="54"
     inkscape:window-y="-8"
     inkscape:window-maximized="1"
     inkscape:current-layer="layer2" />
  <metadata
     id="metadata7">
    <rdf:RDF>
      <cc:Work
         rdf:about="">
        <dc:format>image/svg+xml</dc:format>
        <dc:type
           rdf:resource="http://purl.org/dc/dcmitype/StillImage" />
        <dc:title></dc:title>
      </cc:Work>
    </rdf:RDF>
  </metadata>
  <g
     inkscape:groupmode="layer"
     id="layer2"
     inkscape:label="Layer 1"
     style="display:inline">
    <path
       style="display:inline;fill-rule:evenodd;stroke:none;stroke-width:1.07099998;stroke-linecap:butt;stroke-linejoin:miter;stroke-miterlimit:4;stroke-dasharray:none;stroke-opacity:1"
       d="m 141.73242,16.732422 c -69.035592,1e-6 -124.999997,55.964406 -124.999998,124.999998 0,69.03559 55.964405,125 124.999998,125 69.03559,0 125,-55.96441 125,-125 0,-69.035593 -55.96441,-124.999998 -125,-124.999998 z"
       transform="translate(-1.5258789e-5,0)"
       id="path3350-6"
       inkscape:connector-curvature="0"
       sodipodi:nodetypes="sssss" />
    <g
       id="g3403"
       transform="matrix(0.65221208,0,0,0.64442911,-96.706703,-193.26607)">
      <g
         id="g3407">
        <g
           id="g3411">
          <g
             id="g3423" />
        </g>
      </g>
    </g>
    <path
       style="color:#000000;font-style:normal;font-variant:normal;font-weight:normal;font-stretch:normal;font-size:medium;line-height:normal;font-family:sans-serif;text-indent:0;text-align:start;text-decoration:none;text-decoration-line:none;text-decoration-style:solid;text-decoration-color:#000000;letter-spacing:normal;word-spacing:normal;text-transform:none;direction:ltr;block-progression:tb;writing-mode:lr-tb;baseline-shift:baseline;text-anchor:start;white-space:normal;clip-rule:nonzero;display:inline;overflow:visible;visibility:visible;opacity:1;isolation:auto;mix-blend-mode:normal;color-interpolation:sRGB;color-interpolation-filters:linearRGB;solid-color:#000000;solid-opacity:1;fill:#790000;fill-opacity:1;fill-rule:nonzero;stroke:none;stroke-width:5.97100019;stroke-linecap:butt;stroke-linejoin:miter;stroke-miterlimit:4;stroke-dasharray:none;stroke-dashoffset:0;stroke-opacity:1;color-rendering:auto;image-rendering:auto;shape-rendering:auto;text-rendering:auto;enable-background:accumulate"
       d="m 122.22852,70.167969 c -29.22773,2e-6 -52.986332,23.758601 -52.986332,52.986331 0,29.22772 23.758602,52.98634 52.986332,52.98632 l 0.002,0 c 11.48662,-0.005 22.5457,-3.88665 31.69336,-10.75195 l 48,47.99805 1.36133,-0.0996 c 2.79073,-0.20377 5.53166,-0.88944 7.67773,-2.79102 2.14607,-1.90158 3.2758,-4.90116 3.25781,-8.36914 l -0.006,-1.22851 -48.2207,-48.22071 c 5.89716,-8.72146 9.20113,-18.95171 9.21875,-29.51953 l 0,-0.002 0,-0.002 c 0,-29.227731 -23.75665,-52.986331 -52.98437,-52.986331 z m 0,16.945312 c 19.59748,-2.63e-4 35.46342,16.076419 35.46289,36.041019 -4.5e-4,19.96387 -15.86612,36.03933 -35.46289,36.03906 -19.59678,2.6e-4 -35.464402,-16.07519 -35.464848,-36.03906 -5.37e-4,-19.96458 15.867368,-36.04128 35.464848,-36.041019 z"
       transform="translate(-1.5258789e-5,0)"
       id="path4862"
       inkscape:connector-curvature="0"
       sodipodi:nodetypes="sssccccscccccsscscsc" />
  </g>
  <g
     id="layer1"
     transform="matrix(0.65221208,0,0,0.64442911,69.796994,-435.33041)">
    <a
       id="a3396" />
  </g>
</svg>
