<?xml version="1.0" encoding="UTF-8" standalone="no"?>
<!-- Created with Inkscape (http://www.inkscape.org/) -->

<svg
   xmlns:dc="http://purl.org/dc/elements/1.1/"
   xmlns:cc="http://creativecommons.org/ns#"
   xmlns:rdf="http://www.w3.org/1999/02/22-rdf-syntax-ns#"
   xmlns:svg="http://www.w3.org/2000/svg"
   xmlns="http://www.w3.org/2000/svg"
   xmlns:sodipodi="http://sodipodi.sourceforge.net/DTD/sodipodi-0.dtd"
   xmlns:inkscape="http://www.inkscape.org/namespaces/inkscape"
   id="svg2"
   height="80mm"
   viewBox="0 0 283.46453 283.46456"
   width="80mm"
   version="1.1"
   inkscape:version="0.91 r13725"
   sodipodi:docname="themes.svg">
  <defs
     id="defs9987" />
  <sodipodi:namedview
     pagecolor="#ffffff"
     bordercolor="#666666"
     borderopacity="1"
     objecttolerance="10"
     gridtolerance="10"
     guidetolerance="10"
     inkscape:pageopacity="0"
     inkscape:pageshadow="2"
     inkscape:window-width="1858"
     inkscape:window-height="1057"
     id="namedview9985"
     showgrid="false"
     inkscape:zoom="1.5845908"
     inkscape:cx="222.55392"
     inkscape:cy="42.864836"
     inkscape:window-x="54"
     inkscape:window-y="-8"
     inkscape:window-maximized="1"
     inkscape:current-layer="layer2" />
  <metadata
     id="metadata7">
    <rdf:RDF>
      <cc:Work
         rdf:about="">
        <dc:format>image/svg+xml</dc:format>
        <dc:type
           rdf:resource="http://purl.org/dc/dcmitype/StillImage" />
        <dc:title></dc:title>
      </cc:Work>
    </rdf:RDF>
  </metadata>
  <g
     id="layer2">
    <path
       style="fill-rule:evenodd"
       d="M 142 -0.53515625 C 63.578518 -0.53515625 0 63.041082 0 141.46484 C 0.0022719988 219.89428 63.578518 283.46484 142 283.46484 C 220.42944 283.46484 284 219.89428 284 141.46484 C 284 63.043354 220.42944 -0.53515625 142 -0.53515625 z M 130.88867 95.388672 C 143.9679 95.388672 154.72266 105.52071 154.72266 117.83984 C 154.72266 121.33587 153.80678 124.64013 152.27148 127.59375 L 167.36719 144.64844 C 169.94944 143.73288 172.72329 143.17578 175.63477 143.17578 C 178.90295 143.17578 182.0129 143.85535 184.86133 144.99609 L 197.79883 133.22852 C 196.68618 130.64607 196.01562 127.84496 196.01562 124.90039 C 196.01562 112.58068 206.77233 102.44922 219.85156 102.44922 C 232.93079 102.44922 243.70508 112.57445 243.70508 124.90039 C 243.70508 137.22634 232.93019 147.34961 219.85156 147.34961 C 217.69007 147.34961 215.63377 146.98634 213.64453 146.46875 L 198.64844 160.10938 C 199.13488 161.88365 199.46875 163.71458 199.46875 165.625 C 199.46875 177.94415 188.71398 188.07617 175.63477 188.07617 C 162.55554 188.07617 151.78125 177.95095 151.78125 165.625 C 151.78125 163.42373 152.23651 161.34306 152.875 159.33789 L 135.5957 139.81641 C 134.06855 140.10972 132.49987 140.28906 130.88867 140.28906 C 126.842 140.28906 123.0213 139.2881 119.67383 137.58789 L 86.898438 161.05078 C 87.230228 162.53188 87.427734 164.05761 87.427734 165.625 C 87.427734 177.94472 76.671026 188.07617 63.591797 188.07617 C 50.512568 188.07617 39.757812 177.94415 39.757812 165.625 C 39.757812 153.30586 50.513174 143.17578 63.591797 143.17578 C 67.253061 143.17578 70.725056 144.00378 73.832031 145.41406 L 107.37305 121.42773 C 107.16914 120.25797 107.05273 119.06081 107.05273 117.83984 C 107.05273 105.52015 117.80944 95.388672 130.88867 95.388672 z M 130.89062 110.16406 C 125.73288 110.16406 122.74219 112.98156 122.74219 117.83984 C 122.74219 122.69807 125.73276 125.51562 130.89062 125.51562 C 136.04852 125.51562 139.0332 122.702 139.0332 117.83984 C 139.0332 112.97777 136.04843 110.16406 130.89062 110.16406 z M 219.83203 117.22461 C 214.67432 117.22461 211.68359 120.0421 211.68359 124.90039 C 211.68359 129.75859 214.67423 132.57617 219.83203 132.57617 C 224.99002 132.57617 228.03906 129.7166 228.03906 124.90039 C 228.03906 120.08415 224.98987 117.22461 219.83203 117.22461 z M 63.589844 157.94922 C 58.431945 157.94922 55.447266 160.76284 55.447266 165.625 C 55.447266 170.48707 58.432008 173.30078 63.589844 173.30078 C 68.747586 173.30078 71.738281 170.48329 71.738281 165.625 C 71.738281 160.7668 68.747648 157.94922 63.589844 157.94922 z M 175.65625 157.94922 C 170.49841 157.94922 167.44531 160.81263 167.44531 165.625 C 167.44531 170.43743 170.49841 173.30078 175.65625 173.30078 C 180.81399 173.30078 183.80469 170.48329 183.80469 165.625 C 183.80469 160.7668 180.81405 157.94922 175.65625 157.94922 z "
       transform="translate(-1.5258789e-5,0)"
       id="path3350-6" />
    <g
       id="g3403"
       transform="matrix(.65221 0 0 .64443 -96.707 -193.27)">
      <g
         id="g3407">
        <g
           id="g3411" />
      </g>
    </g>
    <g
       transform="matrix(10.456691,0,0,9.8494648,-749.37399,-446.38862)"
       id="g3343"
       style="fill:#ffff00;stroke:#00ad00;stroke-width:1.01975286;stroke-miterlimit:4;stroke-dasharray:none;stroke-opacity:1">
      <g
         id="g4188"
         style="fill:#ffff00;stroke:#00ad00;stroke-width:1.01975286;stroke-miterlimit:4;stroke-dasharray:none;stroke-opacity:1" />
    </g>
  </g>
  <g
     id="layer1"
     transform="matrix(.65221 0 0 .64443 69.797 -435.33)">
    <a
       id="a3396" />
  </g>
</svg>
