<?xml version="1.0" encoding="UTF-8" standalone="no"?>
<!-- Created with Inkscape (http://www.inkscape.org/) -->

<svg
   xmlns:dc="http://purl.org/dc/elements/1.1/"
   xmlns:cc="http://creativecommons.org/ns#"
   xmlns:rdf="http://www.w3.org/1999/02/22-rdf-syntax-ns#"
   xmlns:svg="http://www.w3.org/2000/svg"
   xmlns="http://www.w3.org/2000/svg"
   xmlns:sodipodi="http://sodipodi.sourceforge.net/DTD/sodipodi-0.dtd"
   xmlns:inkscape="http://www.inkscape.org/namespaces/inkscape"
   id="svg2"
   height="80mm"
   viewBox="0 0 283.46453 283.46456"
   width="80mm"
   version="1.1"
   inkscape:version="0.91 r13725"
   sodipodi:docname="toutesSesPetitesPoches.svg">
  <defs
     id="defs9974" />
  <sodipodi:namedview
     pagecolor="#ffffff"
     bordercolor="#666666"
     borderopacity="1"
     objecttolerance="10"
     gridtolerance="10"
     guidetolerance="10"
     inkscape:pageopacity="0"
     inkscape:pageshadow="2"
     inkscape:window-width="1304"
     inkscape:window-height="745"
     id="namedview9972"
     showgrid="false"
     inkscape:zoom="1.3476202"
     inkscape:cx="81.612292"
     inkscape:cy="105.89862"
     inkscape:window-x="54"
     inkscape:window-y="-8"
     inkscape:window-maximized="1"
     inkscape:current-layer="svg2" />
  <metadata
     id="metadata7">
    <rdf:RDF>
      <cc:Work
         rdf:about="">
        <dc:format>image/svg+xml</dc:format>
        <dc:type
           rdf:resource="http://purl.org/dc/dcmitype/StillImage" />
        <dc:title></dc:title>
      </cc:Work>
    </rdf:RDF>
  </metadata>
  <g
     id="layer2"
     transform="matrix(1.136,0,0,1.136,-19.005278,-15.090692)">
    <path
       style="fill-rule:evenodd"
       d="m 141.49432,13.048392 c -69.033001,0 -125.000001,55.965004 -125.000001,125.000008 0.002,69.04 55.967,125 125.000001,125 69.04,0 125,-55.96 125,-125 0,-69.033004 -55.96,-125.000008 -125,-125.000008 z m -28.25326,58.408066 a 32.333996,32.987209 0 0 1 32.33488,32.988212 32.333996,32.987209 0 0 1 -32.33488,32.9865 32.333996,32.987209 0 0 1 -32.33316,-32.9865 32.333996,32.987209 0 0 1 32.33316,-32.988212 z m 83.79525,20.975462 a 32.333996,32.987209 0 0 1 32.33316,32.98649 32.333996,32.987209 0 0 1 -32.33316,32.98822 32.333996,32.987209 0 0 1 -32.33488,-32.98822 32.333996,32.987209 0 0 1 32.33488,-32.98649 z m -65.77527,64.52534 a 32.333996,32.987209 0 0 1 32.33316,32.98649 32.333996,32.987209 0 0 1 -32.33316,32.9865 32.333996,32.987209 0 0 1 -32.334874,-32.9865 32.333996,32.987209 0 0 1 32.334874,-32.98649 z"
       id="path3350-6"
       inkscape:connector-curvature="0" />
    <g
       id="g3403"
       transform="matrix(0.65221,0,0,0.64443,-96.707,-193.27)">
      <g
         id="g3407">
        <g
           id="g3411" />
      </g>
    </g>
  </g>
  <g
     id="layer1"
     transform="matrix(.65221 0 0 .64443 69.797 -435.33)">
    <a
       id="a3396" />
  </g>
  <g
     id="g4307"
     transform="translate(-2.2162715,3.7879294)" />
</svg>
